<?xml version="1.0" encoding="utf-8"?>
<!-- Generator: Adobe Illustrator 16.0.0, SVG Export Plug-In . SVG Version: 6.00 Build 0)  -->
<!DOCTYPE svg PUBLIC "-//W3C//DTD SVG 1.1//EN" "http://www.w3.org/Graphics/SVG/1.1/DTD/svg11.dtd">
<svg version="1.1" id="Layer_1" xmlns="http://www.w3.org/2000/svg" xmlns:xlink="http://www.w3.org/1999/xlink" x="0px" y="0px"
	 width="150px" height="150px" viewBox="0 0 150 150" enable-background="new 0 0 150 150" xml:space="preserve">
<circle fill="#A09FED" cx="75" cy="75" r="72.5"/>
<g>
	<g>
		<path fill="#FFFFFF" stroke="#FFFFFF" stroke-miterlimit="10" d="M115.808,87.648c-0.192-0.532-0.394-1.059-0.601-1.583
			l13.186-5.221c0.256,0.649,0.504,1.302,0.742,1.958L115.808,87.648z M100.111,54.707c-0.405-0.396-0.814-0.787-1.231-1.172
			l9.63-10.409c0.515,0.476,1.022,0.958,1.522,1.448L100.111,54.707z M68.866,36.846c-0.536-0.18-1.074-0.353-1.616-0.518
			l4.14-13.564c0.67,0.205,1.337,0.419,2,0.642L68.866,36.846z"/>
	</g>
	<path fill="none" stroke="#FFFFFF" stroke-width="3" stroke-miterlimit="10" d="M85.982,64.415
		C75.135,53.566,62.176,46.485,58.648,53.54c0.006,0.034,0.013,0.068,0.018,0.103c-0.249,0.259-0.448,0.578-0.566,0.958
		l-16.873,54.418c-0.581,1.878,1.199,3.629,3.068,3.016l49.47-16.263c1.307-0.244,2.581-0.661,3.819-1.256l0.363-0.119
		c0.374-0.123,0.687-0.325,0.94-0.575c0.009-0.005,0.019-0.01,0.027-0.015C104.794,90.279,96.832,75.263,85.982,64.415z"/>
	<path fill="#FFFFFF" d="M55.119,96.83c-3.338-3.339-6.783-4.793-8.411-3.347c0.002,0.011,0.004,0.021,0.005,0.031
		c-0.076,0.08-0.139,0.178-0.174,0.295l-5.192,16.745c-0.179,0.578,0.369,1.118,0.944,0.928l15.223-5.003
		c0.401-0.075,0.794-0.204,1.175-0.386l0.112-0.038c0.115-0.038,0.212-0.1,0.289-0.176c0.003-0.002,0.006-0.003,0.009-0.005
		C60.908,104.788,58.458,100.167,55.119,96.83z"/>
</g>
</svg>
