<?xml version="1.0" encoding="utf-8"?>
<!-- Generator: Adobe Illustrator 21.0.0, SVG Export Plug-In . SVG Version: 6.00 Build 0)  -->
<svg version="1.1" id="Layer_1" xmlns="http://www.w3.org/2000/svg" xmlns:xlink="http://www.w3.org/1999/xlink" x="0px" y="0px"
	 viewBox="0 0 60 60" style="enable-background:new 0 0 60 60;" xml:space="preserve">
<style type="text/css">
	.st0{fill:#A09FED;}
	.st1{fill:#FFFFFF;}
</style>
<circle class="st0" cx="30" cy="30" r="29"/>
<g>
	<g>
		<path class="st1" d="M46.7,23.8c0.5-1.1,0.8-2.3,0.8-3.6c0-5.2-4.2-9.4-9.4-9.4h-11c-5.2,0-9.4,4.2-9.4,9.4c0,0.2,0,0.2,0,0.4
			c-3.7,2-6.3,5.9-6.3,10.4c0.1,6.5,5.4,11.8,11.9,11.8h1.5l0.1,6.3c0,0.4,0.2,0.7,0.5,0.8c0.1,0.1,0.2,0.1,0.4,0.1
			c0.2,0,0.5-0.1,0.6-0.2l8.2-7h2.8c6.5,0,11.8-5.3,11.8-11.8C49.1,28.3,48.2,25.8,46.7,23.8z M37.3,41h-3.2c-0.2,0-0.5,0.1-0.6,0.2
			l-6.9,6v-5.3c0-0.5-0.4-0.9-0.9-0.9h-2.5c-5.5,0-10-4.5-10-10c0-3.5,1.9-6.7,4.7-8.5c1.1,4.1,4.7,7,9.1,7h2.5l6.3,6.3
			c0.2,0.2,0.4,0.2,0.7,0.2c0.1,0,0.2,0,0.4-0.1c0.4-0.2,0.5-0.5,0.5-0.8v-5.7h0.6c3.2,0,6-1.6,7.7-4c1,1.5,1.6,3.4,1.6,5.4
			C47.3,36.5,42.8,41,37.3,41z M26.9,12.7h11c4.2,0,7.6,3.4,7.6,7.6c0,0.8-0.1,1.4-0.3,2.1c-0.1,0.3-0.2,0.7-0.4,0.9
			c-0.2,0.3-0.3,0.6-0.5,0.8c-1.4,2.3-3.7,3.7-6.5,3.7h-1.5c-0.5,0-0.9,0.4-0.9,0.9V33l-5.1-5c-0.2-0.2-0.4-0.2-0.7-0.2h-2.9
			c-3.7,0-6.7-2.6-7.4-6c0.1-0.3,0.1-0.7,0.1-1c0-0.2-0.1-0.4-0.1-0.5s0-0.2,0-0.4C19.6,15.8,22.9,12.7,26.9,12.7z"/>
		<path class="st1" d="M24.2,21c0.3,0.4,0.8,0.6,1.3,0.6c0.5,0,0.9-0.2,1.3-0.6c0.2-0.2,0.4-0.5,0.4-0.9c0-0.1,0-0.1,0-0.2
			c0-0.3-0.1-0.5-0.2-0.8c-0.3-0.5-0.8-0.9-1.4-0.9c-0.7,0-1.2,0.4-1.4,0.9c-0.2,0.2-0.2,0.5-0.2,0.8c0,0.1,0,0.1,0,0.2
			C23.9,20.5,24.1,20.8,24.2,21z"/>
		<path class="st1" d="M30.9,21c0.3,0.4,0.8,0.6,1.3,0.6c0.5,0,0.9-0.2,1.3-0.6c0.2-0.2,0.4-0.5,0.4-0.9c0-0.1,0-0.1,0-0.2
			c0-0.3-0.1-0.5-0.2-0.8c-0.3-0.5-0.8-0.9-1.4-0.9c-0.7,0-1.2,0.4-1.4,0.9c-0.2,0.2-0.2,0.5-0.2,0.8c0,0.1,0,0.1,0,0.2
			C30.6,20.5,30.7,20.8,30.9,21z"/>
		<path class="st1" d="M37.6,21c0.3,0.4,0.8,0.6,1.2,0.6c0.4,0,0.7-0.1,0.9-0.3c0.3-0.2,0.5-0.5,0.7-0.8c0.1-0.2,0.1-0.4,0.1-0.6
			c0-0.1,0-0.2-0.1-0.4c-0.2-0.8-0.8-1.4-1.7-1.4c-0.7,0-1.2,0.4-1.4,0.9c-0.2,0.2-0.2,0.5-0.2,0.8c0,0.1,0,0.1,0,0.2
			C37.3,20.5,37.4,20.8,37.6,21z"/>
	</g>
</g>
</svg>
