<?xml version="1.0" encoding="utf-8"?>
<!-- Generator: Adobe Illustrator 21.0.0, SVG Export Plug-In . SVG Version: 6.00 Build 0)  -->
<svg version="1.1" id="Layer_1" xmlns="http://www.w3.org/2000/svg" xmlns:xlink="http://www.w3.org/1999/xlink" x="0px" y="0px"
	 viewBox="0 0 60 60" style="enable-background:new 0 0 60 60;" xml:space="preserve">
<style type="text/css">
	.st0{fill:#A09FED;}
	.st1{fill:#FFFFFF;}
	.st2{fill:none;stroke:#FFFFFF;stroke-width:2.5;stroke-linecap:round;stroke-miterlimit:10;}
</style>
<circle class="st0" cx="30" cy="30" r="28.7"/>
<path class="st1" d="M15.3,20.9c-0.6,0-1,0.5-1,1.1c0,0.6,0.5,1,1.1,1c6.7,0,12.7,2.7,17.1,7c0.4,0.4,1.1,0.4,1.5,0
	c0.4-0.4,0.4-1.1,0-1.5c0,0,0,0,0,0C29.2,23.8,22.6,20.9,15.3,20.9C15.3,20.9,15.3,20.9,15.3,20.9z M15.3,27.2c-0.6,0-1,0.5-1,1.1
	c0,0.6,0.5,1,1.1,1c9.9,0,17.8,8,17.8,17.8c0,0.6,0.5,1.1,1,1.1c0.6,0,1.1-0.5,1.1-1c0,0,0,0,0,0C35.3,36.1,26.4,27.2,15.3,27.2
	C15.3,27.2,15.3,27.2,15.3,27.2z M36,31.9c-0.6,0.1-1,0.6-0.9,1.2c0,0.2,0.1,0.4,0.2,0.5c2.6,3.9,4.2,8.5,4.2,13.6
	c0,0.6,0.5,1.1,1,1.1c0.6,0,1.1-0.5,1.1-1c0,0,0,0,0,0c0-5.5-1.7-10.5-4.5-14.7C36.8,32.1,36.4,31.9,36,31.9z M15.3,33.5
	c-0.6,0-1,0.5-1,1.1c0,0.6,0.5,1,1.1,1c6.4,0,11.5,5.1,11.5,11.5c0,0.6,0.5,1.1,1,1.1c0.6,0,1.1-0.5,1.1-1c0,0,0,0,0,0
	C29,39.6,22.9,33.5,15.3,33.5C15.3,33.5,15.3,33.5,15.3,33.5z"/>
<path class="st2" d="M28.7,17.6c11.2,5.2,18.9,16.6,18.9,29.7"/>
<path class="st2" d="M15.1,14.5c3.3,0,6.5,0.6,9.5,1.5"/>
</svg>
